<svg version="1.1" width="16" height="16" viewBox="0 0 16 16" xmlns="http://www.w3.org/2000/svg" xmlns:xlink="http://www.w3.org/1999/xlink" fill="currentColor" overflow="hidden"><path d=" M 8 0 C 5.829 0 5.556 0.01 4.703 0.048 C 3.85 0.088 3.269 0.222 2.76 0.42 C 2.22609 0.620819 1.74249 0.935826 1.343 1.343 C 0.936076 1.7427 0.621107 2.22624 0.42 2.76 C 0.222 3.268 0.087 3.85 0.048 4.7 C 0.01 5.555 0 5.827 0 8.001 C 0 10.173 0.01 10.445 0.048 11.298 C 0.088 12.15 0.222 12.731 0.42 13.24 C 0.625 13.766 0.898 14.212 1.343 14.657 C 1.787 15.102 2.233 15.376 2.759 15.58 C 3.269 15.778 3.849 15.913 4.701 15.952 C 5.555 15.99 5.827 16 8 16 C 10.173 16 10.444 15.99 11.298 15.952 C 12.149 15.912 12.732 15.778 13.241 15.58 C 13.7746 15.3791 14.2578 15.0641 14.657 14.657 C 15.102 14.212 15.375 13.766 15.58 13.24 C 15.777 12.731 15.912 12.15 15.952 11.298 C 15.99 10.445 16 10.173 16 8 C 16 5.827 15.99 5.555 15.952 4.701 C 15.912 3.85 15.777 3.268 15.58 2.76 C 15.3789 2.22623 15.0639 1.74268 14.657 1.343 C 14.2576 0.935676 13.774 0.620645 13.24 0.42 C 12.73 0.222 12.148 0.087 11.297 0.048 C 10.443 0.01 10.172 0 7.998 0 L 8.001 0 Z M 7.283 1.442 L 8.001 1.442 C 10.137 1.442 10.39 1.449 11.233 1.488 C 12.013 1.523 12.437 1.654 12.719 1.763 C 13.092 1.908 13.359 2.082 13.639 2.362 C 13.919 2.642 14.092 2.908 14.237 3.282 C 14.347 3.563 14.477 3.987 14.512 4.767 C 14.551 5.61 14.559 5.863 14.559 7.998 C 14.559 10.133 14.551 10.387 14.512 11.23 C 14.477 12.01 14.346 12.433 14.237 12.715 C 14.1087 13.0624 13.904 13.3764 13.638 13.634 C 13.358 13.914 13.092 14.087 12.718 14.232 C 12.438 14.342 12.014 14.472 11.233 14.508 C 10.39 14.546 10.137 14.555 8.001 14.555 C 5.865 14.555 5.611 14.546 4.768 14.508 C 3.988 14.472 3.565 14.342 3.283 14.232 C 2.9355 14.1039 2.62113 13.8996 2.363 13.634 C 2.09675 13.376 1.89172 13.0617 1.763 12.714 C 1.654 12.433 1.523 12.009 1.488 11.229 C 1.45 10.386 1.442 10.133 1.442 7.996 C 1.442 5.86 1.45 5.608 1.488 4.765 C 1.524 3.985 1.654 3.561 1.764 3.279 C 1.909 2.906 2.083 2.639 2.363 2.359 C 2.643 2.079 2.909 1.906 3.283 1.761 C 3.565 1.651 3.988 1.521 4.768 1.485 C 5.506 1.451 5.792 1.441 7.283 1.44 L 7.283 1.442 Z M 12.271 2.77 C 11.7408 2.77 11.311 3.19981 11.311 3.73 C 11.311 4.26019 11.7408 4.69 12.271 4.69 C 12.8012 4.69 13.231 4.26019 13.231 3.73 C 13.231 3.19981 12.8012 2.77 12.271 2.77 Z M 8.001 3.892 C 5.73194 3.8566 3.8638 5.66734 3.8284 7.9364 C 3.793 10.2055 5.60374 12.0736 7.8728 12.109 C 7.91553 12.1097 7.95827 12.1097 8.001 12.109 C 10.2701 12.0736 12.0808 10.2055 12.0454 7.9364 C 12.0108 5.71724 10.2202 3.92662 8.001 3.892 Z M 8.001 5.333 C 9.47394 5.333 10.668 6.52706 10.668 8 C 10.668 9.47294 9.47394 10.667 8.001 10.667 C 6.52806 10.667 5.334 9.47294 5.334 8 C 5.334 6.52706 6.52806 5.333 8.001 5.333 Z" stroke="none" stroke-width="1" stroke-dasharray="" stroke-dashoffset="1" fill="#C2B188" fill-opacity="1"/></svg>